<svg width="1344" height="170" viewBox="0 0 1344 170" fill="none" xmlns="http://www.w3.org/2000/svg">
<g filter="url(#filter0_d_481_364)">
<path d="M0.65 2.79999H69.58V7.09399H57.15V156.706H69.58V161H0.65V156.706H13.08V7.09399H0.65V2.79999ZM208.676 7.09399V161H177.036L99.5179 14.778V156.706H111.948V161H80.9859V156.706H93.4159V7.09399H80.9859V2.79999H143.362L202.574 116.252V7.09399H190.144V2.79999H221.106V7.09399H208.676ZM360.078 7.09399V161H328.438L250.92 14.778V156.706H263.35V161H232.388V156.706H244.818V7.09399H232.388V2.79999H294.764L353.976 116.252V7.09399H341.546V2.79999H372.508V7.09399H360.078ZM489.16 91.166V74.442C489.16 46.87 487.804 29.468 485.092 22.236C482.078 13.9493 477.784 8.82666 472.21 6.86799C469.046 5.66265 465.204 5.05999 460.684 5.05999C456.164 5.05999 452.246 5.66265 448.932 6.86799C445.768 8.07333 443.131 10.1827 441.022 13.196C438.912 16.2093 437.18 19.3733 435.824 22.688C434.618 26.0027 433.639 30.6733 432.886 36.7C431.982 45.4387 431.53 58.3207 431.53 75.346V91.618C431.53 109.999 432.208 123.107 433.564 130.942C435.07 138.626 436.878 144.125 438.988 147.44C443.658 154.823 450.89 158.514 460.684 158.514C472.586 158.514 480.27 153.542 483.736 143.598C487.352 133.503 489.16 116.026 489.16 91.166ZM460.232 163.26C435.07 163.26 416.237 156.48 403.732 142.92C391.377 129.209 385.2 109.472 385.2 83.708C385.2 57.7933 391.829 37.4533 405.088 22.688C418.497 7.77199 437.406 0.313994 461.814 0.313994C486.222 0.313994 504.603 7.39533 516.958 21.558C529.463 35.57 535.716 55.5333 535.716 81.448C535.716 107.363 529.388 127.477 516.732 141.79C504.226 156.103 485.393 163.26 460.232 163.26ZM629.813 120.094L669.137 7.09399H651.509V2.79999H686.087V7.09399H675.465L620.999 163.26H602.015L544.385 7.09399H533.989V2.79999H607.891V7.09399H591.845L629.813 120.094ZM750.989 156.706L734.491 107.89H689.743L672.341 156.706H689.291V161H654.713V156.706H665.335L722.965 1.44399H741.497L798.449 156.706H808.845V161H734.943V156.706H750.989ZM713.021 43.706L691.777 102.918H732.683L713.021 43.706ZM931.502 2.79999L933.762 59.526H929.468C922.838 39.4873 916.962 25.852 911.84 18.62C906.717 11.2373 899.334 7.546 889.692 7.546H886.98V156.254H906.19V161H823.7V156.254H842.91V7.546H839.972C830.329 7.546 822.871 11.388 817.598 19.072C812.324 26.6053 806.524 40.09 800.196 59.526H795.902L798.162 2.79999H931.502ZM947.687 2.79999H1016.62V7.09399H1004.19V156.706H1016.62V161H947.687V156.706H960.117V7.09399H947.687V2.79999ZM1135.6 91.166V74.442C1135.6 46.87 1134.24 29.468 1131.53 22.236C1128.52 13.9493 1124.22 8.82666 1118.65 6.86799C1115.49 5.66265 1111.64 5.05999 1107.12 5.05999C1102.6 5.05999 1098.69 5.66265 1095.37 6.86799C1092.21 8.07333 1089.57 10.1827 1087.46 13.196C1085.35 16.2093 1083.62 19.3733 1082.26 22.688C1081.06 26.0027 1080.08 30.6733 1079.33 36.7C1078.42 45.4387 1077.97 58.3207 1077.97 75.346V91.618C1077.97 109.999 1078.65 123.107 1080 130.942C1081.51 138.626 1083.32 144.125 1085.43 147.44C1090.1 154.823 1097.33 158.514 1107.12 158.514C1119.03 158.514 1126.71 153.542 1130.18 143.598C1133.79 133.503 1135.6 116.026 1135.6 91.166ZM1106.67 163.26C1081.51 163.26 1062.68 156.48 1050.17 142.92C1037.82 129.209 1031.64 109.472 1031.64 83.708C1031.64 57.7933 1038.27 37.4533 1051.53 22.688C1064.94 7.77199 1083.85 0.313994 1108.25 0.313994C1132.66 0.313994 1151.04 7.39533 1163.4 21.558C1175.9 35.57 1182.16 55.5333 1182.16 81.448C1182.16 107.363 1175.83 127.477 1163.17 141.79C1150.67 156.103 1131.83 163.26 1106.67 163.26ZM1324.77 7.09399V161H1293.13L1215.61 14.778V156.706H1228.04V161H1197.08V156.706H1209.51V7.09399H1197.08V2.79999H1259.46L1318.67 116.252V7.09399H1306.24V2.79999H1337.2V7.09399H1324.77Z" fill="white"/>
</g>
<defs>
<filter id="filter0_d_481_364" x="0.648438" y="0.314453" width="1342.45" height="168.845" filterUnits="userSpaceOnUse" color-interpolation-filters="sRGB">
<feFlood flood-opacity="0" result="BackgroundImageFix"/>
<feColorMatrix in="SourceAlpha" type="matrix" values="0 0 0 0 0 0 0 0 0 0 0 0 0 0 0 0 0 0 127 0" result="hardAlpha"/>
<feOffset dx="4" dy="4"/>
<feGaussianBlur stdDeviation="0.95"/>
<feComposite in2="hardAlpha" operator="out"/>
<feColorMatrix type="matrix" values="0 0 0 0 0 0 0 0 0 0 0 0 0 0 0 0 0 0 0.78 0"/>
<feBlend mode="normal" in2="BackgroundImageFix" result="effect1_dropShadow_481_364"/>
<feBlend mode="normal" in="SourceGraphic" in2="effect1_dropShadow_481_364" result="shape"/>
</filter>
</defs>
</svg>
