<svg width="1327" height="85" viewBox="0 0 1327 85" fill="none" xmlns="http://www.w3.org/2000/svg">
<g filter="url(#filter0_d_481_371)">
<path d="M45.6377 55.1032L54.5715 24.104L48.1133 3.54553H41.9781V1.50045H75.3453V3.54553H68.9947L85.0325 54.4574L97.9488 3.54553H87.0776V1.50045H108.605V3.54553H101.501L81.6958 77.9221H72.1162L56.186 29.2706L42.1933 77.9221H32.829L5.70471 3.54553H0.645816V1.50045H35.6275V3.54553H28.093L45.6377 55.1032ZM111.473 1.50045H145.056V3.54553H138.813V36.9127H160.232V3.54553H153.882V1.50045H187.572V3.54553H181.221V74.8006H187.572V76.8457H153.882V74.8006H160.232V39.7113H138.813V74.8006H145.056V76.8457H111.473V74.8006H117.824V3.54553H111.473V1.50045ZM192.095 1.50045H248.066L249.142 22.8124H247.205C244.191 15.5649 241.034 10.6136 237.733 7.95861C234.432 5.23183 229.588 3.86844 223.202 3.86844H219.435V37.128H223.094C226.467 37.128 229.301 35.8722 231.598 33.3607C233.894 30.7775 235.508 27.3331 236.441 23.0277H238.056V54.8879H236.226C234.934 49.5061 233.176 45.6671 230.952 43.3709C228.799 41.0746 225.821 39.9265 222.018 39.9265H219.435V74.4777H223.525C230.126 74.4777 235.724 72.5044 240.316 68.5577C244.98 64.6111 248.173 59.5522 249.896 53.381H252.048L251.187 76.8457H192.095V74.4777H198.446V3.86844H192.095V1.50045ZM320.507 3.54553V76.8457H305.438L268.519 7.20516V74.8006H274.439V76.8457H259.693V74.8006H265.613V3.54553H259.693V1.50045H289.401L317.601 55.5338V3.54553H311.681V1.50045H326.427V3.54553H320.507ZM350.711 1.50045H384.294V3.54553H378.051V36.9127H399.47V3.54553H393.12V1.50045H426.81V3.54553H420.459V74.8006H426.81V76.8457H393.12V74.8006H399.47V39.7113H378.051V74.8006H384.294V76.8457H350.711V74.8006H357.062V3.54553H350.711V1.50045ZM431.764 1.50045H464.593V3.54553H458.673V74.8006H464.593V76.8457H431.764V74.8006H437.684V3.54553H431.764V1.50045ZM502.316 75.6617C505.904 75.6617 509.061 74.693 511.788 72.7555C514.586 70.8181 515.985 67.9119 515.985 64.037C515.985 60.0904 514.479 57.0765 511.465 54.9956C508.523 52.9146 504.289 51.1207 498.764 49.6138C493.31 48.0351 489.328 46.6717 486.816 45.5236C484.376 44.3755 482.044 42.8686 479.82 41.0029C475.371 37.2715 473.146 31.495 473.146 23.6735C473.146 17.2871 475.407 11.7976 479.927 7.20516C484.52 2.61269 490.763 0.316454 498.656 0.316454C502.459 0.316454 506.406 0.890513 510.496 2.03863C514.658 3.11499 517.241 3.65317 518.246 3.65317C519.25 3.65317 520.147 2.9356 520.937 1.50045H522.121L522.874 23.2429H521.152C517.708 17 514.084 12.0129 510.281 8.28152C506.549 4.47838 502.459 2.57681 498.01 2.57681C493.633 2.57681 490.225 3.61729 487.785 5.69826C485.345 7.70747 484.125 10.4342 484.125 13.8786C484.125 17.2512 485.56 19.8703 488.431 21.736C491.373 23.53 494.961 25.001 499.194 26.1491C503.428 27.2972 506.191 28.0866 507.482 28.5171C508.846 28.9476 510.496 29.5576 512.433 30.3469C514.443 31.0645 516.057 31.8538 517.277 32.7149C518.569 33.5042 519.896 34.5447 521.26 35.8364C522.695 37.0562 523.807 38.4196 524.596 39.9265C526.534 43.3709 527.503 47.4611 527.503 52.197C527.503 59.9468 525.063 66.1897 520.183 70.9257C515.376 75.5899 509.025 77.9221 501.132 77.9221C497.042 77.9221 492.341 77.3839 487.031 76.3075C481.793 75.2312 478.887 74.693 478.313 74.693C477.308 74.693 476.34 75.7693 475.407 77.9221H473.9L472.823 52.3047H474.653C477.811 58.5476 481.829 64.0011 486.708 68.6654C491.66 73.3296 496.862 75.6617 502.316 75.6617ZM595.495 1.50045L596.571 28.5171H594.526C591.369 18.9734 588.57 12.4793 586.131 9.03497C583.691 5.51886 580.175 3.76081 575.582 3.76081H574.291V74.5853H583.44V76.8457H544.152V74.5853H553.302V3.76081H551.902C547.31 3.76081 543.758 5.59062 541.246 9.25025C538.735 12.8381 535.972 19.2604 532.958 28.5171H530.913L531.99 1.50045H595.495ZM651.18 43.5862V35.6211C651.18 22.4895 650.534 14.2015 649.242 10.7572C647.807 6.8105 645.762 4.37075 643.107 3.4379C641.6 2.86384 639.77 2.57681 637.618 2.57681C635.465 2.57681 633.599 2.86384 632.02 3.4379C630.514 4.01196 629.258 5.01656 628.253 6.45171C627.249 7.88686 626.423 9.39376 625.778 10.9724C625.204 12.5511 624.737 14.7756 624.378 17.6459C623.948 21.8078 623.733 27.943 623.733 36.0516V43.8014C623.733 52.5558 624.055 58.7987 624.701 62.5301C625.419 66.1897 626.28 68.8089 627.284 70.3875C629.509 73.9037 632.953 75.6617 637.618 75.6617C643.286 75.6617 646.946 73.2937 648.596 68.5577C650.319 63.75 651.18 55.4261 651.18 43.5862ZM637.402 77.9221C625.419 77.9221 616.449 74.693 610.493 68.2348C604.609 61.7049 601.667 52.3047 601.667 40.0342C601.667 27.6919 604.824 18.0046 611.139 10.9724C617.525 3.86844 626.531 0.316454 638.156 0.316454C649.78 0.316454 658.535 3.68905 664.419 10.4342C670.375 17.1077 673.353 26.6155 673.353 38.9578C673.353 51.3001 670.339 60.8797 664.311 67.6966C658.355 74.5136 649.386 77.9221 637.402 77.9221ZM713.076 38.7425H707.371V74.8006H714.367V76.8457H679.385V74.8006H686.382V3.54553H679.385V1.50045H711.892C721.22 1.50045 727.822 2.00275 731.697 3.00735C735.643 3.9402 738.406 5.08832 739.985 6.45171C743.429 9.25025 745.151 13.6992 745.151 19.7986C745.151 25.898 743.644 30.2752 740.63 32.9302C737.617 35.5135 733.024 37.0562 726.853 37.5585V37.8814C732.665 38.6708 736.72 40.393 739.016 43.048C741.312 45.703 742.46 50.152 742.46 56.3948V62.0996C742.46 65.8309 742.64 68.3425 742.998 69.6341C743.429 70.9257 744.29 71.5715 745.582 71.5715C746.873 71.5715 747.878 70.9975 748.595 69.8494C749.385 68.6295 750.102 66.118 750.748 62.3148L752.578 62.5301C751.789 68.6295 750.389 72.7197 748.38 74.8006C746.443 76.8816 742.532 77.9221 736.648 77.9221C730.764 77.9221 726.566 76.5587 724.054 73.8319C721.615 71.0334 720.395 65.8309 720.395 58.2247V50.3672C720.395 46.3488 719.857 43.4068 718.78 41.5411C717.776 39.6754 715.874 38.7425 713.076 38.7425ZM707.371 3.54553V36.6974H710.815C714.905 36.6974 717.919 35.4417 719.857 32.9302C721.866 30.4187 722.87 26.3285 722.87 20.6597V17.5382C722.87 11.8694 721.902 8.13801 719.964 6.34407C718.099 4.47838 715.085 3.54553 710.923 3.54553H707.371ZM789.982 36.9127L805.267 3.22263H794.395V1.50045H815.6V3.22263H808.496L792.243 39.1731V74.8006H798.808V76.8457H764.688V74.8006H771.254V41.2182L752.956 3.22263H747.897V1.50045H782.34V3.22263H775.344L789.982 36.9127ZM838.237 1.50045H871.066V3.54553H865.146V74.8006H871.066V76.8457H838.237V74.8006H844.157V3.54553H838.237V1.50045ZM937.313 3.54553V76.8457H922.244L885.324 7.20516V74.8006H891.244V76.8457H876.498V74.8006H882.418V3.54553H876.498V1.50045H906.206L934.406 55.5338V3.54553H928.486V1.50045H943.233V3.54553H937.313ZM980.897 75.6617C984.485 75.6617 987.642 74.693 990.369 72.7555C993.167 70.8181 994.567 67.9119 994.567 64.037C994.567 60.0904 993.06 57.0765 990.046 54.9956C987.104 52.9146 982.87 51.1207 977.345 49.6138C971.891 48.0351 967.909 46.6717 965.397 45.5236C962.957 44.3755 960.625 42.8686 958.401 41.0029C953.952 37.2715 951.727 31.495 951.727 23.6735C951.727 17.2871 953.988 11.7976 958.508 7.20516C963.101 2.61269 969.344 0.316454 977.237 0.316454C981.04 0.316454 984.987 0.890513 989.077 2.03863C993.239 3.11499 995.822 3.65317 996.827 3.65317C997.832 3.65317 998.728 2.9356 999.518 1.50045H1000.7L1001.46 23.2429H999.733C996.289 17 992.665 12.0129 988.862 8.28152C985.13 4.47838 981.04 2.57681 976.591 2.57681C972.214 2.57681 968.806 3.61729 966.366 5.69826C963.926 7.70747 962.706 10.4342 962.706 13.8786C962.706 17.2512 964.141 19.8703 967.012 21.736C969.954 23.53 973.542 25.001 977.775 26.1491C982.009 27.2972 984.772 28.0866 986.063 28.5171C987.427 28.9476 989.077 29.5576 991.015 30.3469C993.024 31.0645 994.638 31.8538 995.858 32.7149C997.15 33.5042 998.477 34.5447 999.841 35.8364C1001.28 37.0562 1002.39 38.4196 1003.18 39.9265C1005.11 43.3709 1006.08 47.4611 1006.08 52.197C1006.08 59.9468 1003.64 66.1897 998.764 70.9257C993.957 75.5899 987.606 77.9221 979.713 77.9221C975.623 77.9221 970.922 77.3839 965.612 76.3075C960.374 75.2312 957.468 74.693 956.894 74.693C955.889 74.693 954.921 75.7693 953.988 77.9221H952.481L951.404 52.3047H953.234C956.392 58.5476 960.41 64.0011 965.29 68.6654C970.241 73.3296 975.443 75.6617 980.897 75.6617ZM1012.07 1.50045H1043.71C1054.55 1.50045 1062.62 3.07911 1067.93 6.23644C1073.24 9.32201 1075.9 14.8832 1075.9 22.92C1075.9 31.8179 1072.67 37.9532 1066.21 41.3258C1060.18 44.4114 1051.75 45.9542 1040.92 45.9542H1040.05V74.8006H1053.51V76.8457H1012.07V74.8006H1019.07V3.54553H1012.07V1.50045ZM1040.05 3.54553V43.9091H1042.31C1046.62 43.9091 1049.6 42.438 1051.25 39.496C1052.9 36.5539 1053.72 31.7821 1053.72 25.1804V20.0139C1053.72 13.9145 1052.94 9.64491 1051.36 7.20516C1049.85 4.76541 1047.05 3.54553 1042.96 3.54553H1040.05ZM1081.36 1.50045H1114.19V3.54553H1108.27V74.8006H1114.19V76.8457H1081.36V74.8006H1087.28V3.54553H1081.36V1.50045ZM1152.24 38.7425H1146.53V74.8006H1153.53V76.8457H1118.55V74.8006H1125.55V3.54553H1118.55V1.50045H1151.06C1160.38 1.50045 1166.99 2.00275 1170.86 3.00735C1174.81 3.9402 1177.57 5.08832 1179.15 6.45171C1182.59 9.25025 1184.31 13.6992 1184.31 19.7986C1184.31 25.898 1182.81 30.2752 1179.79 32.9302C1176.78 35.5135 1172.19 37.0562 1166.02 37.5585V37.8814C1171.83 38.6708 1175.88 40.393 1178.18 43.048C1180.48 45.703 1181.62 50.152 1181.62 56.3948V62.0996C1181.62 65.8309 1181.8 68.3425 1182.16 69.6341C1182.59 70.9257 1183.45 71.5715 1184.75 71.5715C1186.04 71.5715 1187.04 70.9975 1187.76 69.8494C1188.55 68.6295 1189.27 66.118 1189.91 62.3148L1191.74 62.5301C1190.95 68.6295 1189.55 72.7197 1187.54 74.8006C1185.61 76.8816 1181.7 77.9221 1175.81 77.9221C1169.93 77.9221 1165.73 76.5587 1163.22 73.8319C1160.78 71.0334 1159.56 65.8309 1159.56 58.2247V50.3672C1159.56 46.3488 1159.02 43.4068 1157.94 41.5411C1156.94 39.6754 1155.04 38.7425 1152.24 38.7425ZM1146.53 3.54553V36.6974H1149.98C1154.07 36.6974 1157.08 35.4417 1159.02 32.9302C1161.03 30.4187 1162.03 26.3285 1162.03 20.6597V17.5382C1162.03 11.8694 1161.07 8.13801 1159.13 6.34407C1157.26 4.47838 1154.25 3.54553 1150.09 3.54553H1146.53ZM1196.24 1.50045H1252.21L1253.29 22.8124H1251.35C1248.34 15.5649 1245.18 10.6136 1241.88 7.95861C1238.58 5.23183 1233.74 3.86844 1227.35 3.86844H1223.58V37.128H1227.24C1230.61 37.128 1233.45 35.8722 1235.75 33.3607C1238.04 30.7775 1239.66 27.3331 1240.59 23.0277H1242.2V54.8879H1240.37C1239.08 49.5061 1237.32 45.6671 1235.1 43.3709C1232.95 41.0746 1229.97 39.9265 1226.17 39.9265H1223.58V74.4777H1227.67C1234.27 74.4777 1239.87 72.5044 1244.46 68.5577C1249.13 64.6111 1252.32 59.5522 1254.04 53.381H1256.2L1255.34 76.8457H1196.24V74.4777H1202.59V3.86844H1196.24V1.50045ZM1295.08 75.6617C1298.67 75.6617 1301.83 74.693 1304.55 72.7555C1307.35 70.8181 1308.75 67.9119 1308.75 64.037C1308.75 60.0904 1307.24 57.0765 1304.23 54.9956C1301.29 52.9146 1297.05 51.1207 1291.53 49.6138C1286.08 48.0351 1282.09 46.6717 1279.58 45.5236C1277.14 44.3755 1274.81 42.8686 1272.58 41.0029C1268.14 37.2715 1265.91 31.495 1265.91 23.6735C1265.91 17.2871 1268.17 11.7976 1272.69 7.20516C1277.28 2.61269 1283.53 0.316454 1291.42 0.316454C1295.22 0.316454 1299.17 0.890513 1303.26 2.03863C1307.42 3.11499 1310.01 3.65317 1311.01 3.65317C1312.02 3.65317 1312.91 2.9356 1313.7 1.50045H1314.89L1315.64 23.2429H1313.92C1310.47 17 1306.85 12.0129 1303.05 8.28152C1299.31 4.47838 1295.22 2.57681 1290.78 2.57681C1286.4 2.57681 1282.99 3.61729 1280.55 5.69826C1278.11 7.70747 1276.89 10.4342 1276.89 13.8786C1276.89 17.2512 1278.33 19.8703 1281.2 21.736C1284.14 23.53 1287.73 25.001 1291.96 26.1491C1296.19 27.2972 1298.96 28.0866 1300.25 28.5171C1301.61 28.9476 1303.26 29.5576 1305.2 30.3469C1307.21 31.0645 1308.82 31.8538 1310.04 32.7149C1311.33 33.5042 1312.66 34.5447 1314.02 35.8364C1315.46 37.0562 1316.57 38.4196 1317.36 39.9265C1319.3 43.3709 1320.27 47.4611 1320.27 52.197C1320.27 59.9468 1317.83 66.1897 1312.95 70.9257C1308.14 75.5899 1301.79 77.9221 1293.9 77.9221C1289.81 77.9221 1285.11 77.3839 1279.8 76.3075C1274.56 75.2312 1271.65 74.693 1271.08 74.693C1270.07 74.693 1269.1 75.7693 1268.17 77.9221H1266.66L1265.59 52.3047H1267.42C1270.58 58.5476 1274.59 64.0011 1279.47 68.6654C1284.42 73.3296 1289.63 75.6617 1295.08 75.6617Z" fill="white"/>
</g>
<defs>
<filter id="filter0_d_481_371" x="0.644531" y="0.316406" width="1325.97" height="83.956" filterUnits="userSpaceOnUse" color-interpolation-filters="sRGB">
<feFlood flood-opacity="0" result="BackgroundImageFix"/>
<feColorMatrix in="SourceAlpha" type="matrix" values="0 0 0 0 0 0 0 0 0 0 0 0 0 0 0 0 0 0 127 0" result="hardAlpha"/>
<feOffset dx="4.30544" dy="4.30544"/>
<feGaussianBlur stdDeviation="1.02254"/>
<feComposite in2="hardAlpha" operator="out"/>
<feColorMatrix type="matrix" values="0 0 0 0 0 0 0 0 0 0 0 0 0 0 0 0 0 0 0.78 0"/>
<feBlend mode="normal" in2="BackgroundImageFix" result="effect1_dropShadow_481_371"/>
<feBlend mode="normal" in="SourceGraphic" in2="effect1_dropShadow_481_371" result="shape"/>
</filter>
</defs>
</svg>
